<svg width="69" height="51" viewBox="0 0 69 51" fill="none" xmlns="http://www.w3.org/2000/svg">
<g clip-path="url(#clip0_223_195)">
<path d="M38.2878 47.2505C40.5604 47.2822 42.6121 46.4243 44.6007 45.4393C49.8719 42.8336 54.5119 39.2748 58.9941 35.4935C60.8879 33.9047 62.7187 32.2206 64.6757 30.5047C66.0961 31.7122 67.4849 32.9196 69.0316 34.2224C67.4849 35.5888 66.0645 36.8916 64.6126 38.1626C60.162 41.9757 55.5535 45.5664 50.4085 48.3944C48.2306 49.6019 45.9579 50.5869 43.4643 50.9047C41.9177 51.0953 40.4973 50.8729 39.2663 49.8243C38.1931 48.9028 37.1199 47.9495 36.0782 47.028C36.7727 47.1234 37.5302 47.1869 38.2878 47.2505Z" fill="#FDBD57"/>
<path d="M38.2877 47.2505C37.5301 47.1869 36.7726 47.1234 36.015 47.0598C33.5846 45.6299 33.4899 43.2467 34.0896 40.9907C35.2259 36.8916 36.7095 32.8878 38.0036 28.8206C39.1084 25.3252 40.1184 21.7981 41.1601 18.271C42.1386 18.2392 43.1171 18.2075 44.0956 18.2075C45.9579 19.4785 45.8316 21.4168 45.3581 23.1327C44.5059 26.4056 43.338 29.615 42.2964 32.8243C41.0654 36.6056 39.7397 40.3869 38.5718 44.2C38.2877 45.1533 38.3824 46.2336 38.2877 47.2505Z" fill="#FE9624"/>
<path d="M44.0956 18.1757C43.1171 18.2075 42.1386 18.2393 41.1601 18.2393C38.5403 19.2243 35.8889 20.114 33.3321 21.1944C30.0179 22.6243 26.7351 24.2449 23.4524 25.7701C23.1368 25.929 22.7896 25.9925 22.4739 26.1514C19.8225 27.3907 17.4552 27.1682 15.4982 24.785C14.9932 24.1813 14.3619 23.7047 13.7937 23.1645C15.0247 22.9421 16.2873 22.6878 17.5183 22.4654C19.4437 21.7028 21.4007 21.0037 23.2946 20.1458C26.7667 18.5888 30.2388 16.9682 33.6793 15.3794C34.0265 15.2206 34.4053 15.1252 34.7841 14.9664C37.4986 13.9178 39.9922 13.886 42.0755 16.3009C42.7068 17.0318 43.4328 17.572 44.0956 18.1757Z" fill="#FDBD57"/>
<path d="M17.5498 22.4972C16.3188 22.7196 15.0563 22.9738 13.8252 23.1963C12.6258 22.4654 12.4048 21.3533 12.7836 20.114C13.699 17.1907 14.7722 14.2991 15.5297 11.3121C16.161 8.96075 16.4451 6.51402 16.887 4.13084C17.7392 3.97196 18.5915 3.81308 19.4437 3.68598C21.0219 4.60748 21.4638 6.16449 21.2429 7.78505C20.9273 10.3589 20.4222 12.9327 19.7909 15.443C19.2228 17.7944 18.3074 20.114 17.5498 22.4972Z" fill="#FE9625"/>
<path d="M19.4753 3.65409C18.6231 3.81297 17.7708 3.97185 16.9186 4.09895C15.5613 4.67091 14.0778 5.084 12.8783 5.87839C10.3532 7.53073 7.92269 9.37372 5.46066 11.1532C5.11345 11.4074 4.76624 11.6616 4.38747 11.9793C2.9355 10.8036 1.5151 9.59615 0 8.29334C3.914 5.2111 7.63861 2.03353 12.3102 0.317643C13.9515 -0.286095 15.4666 -0.0636651 16.7607 1.23914C17.613 2.06531 18.5599 2.8597 19.4753 3.65409Z" fill="#FDBD57"/>
</g>
<defs>
<clipPath id="clip0_223_195">
<rect width="69" height="51" fill="white"/>
</clipPath>
</defs>
</svg>
